<?xml version="1.0" encoding="UTF-8"?>
<svg width="50px" height="52px" viewBox="0 0 50 52" version="1.1">
    <g id="bell" stroke="none" stroke-width="1" fill="none" fill-rule="evenodd">
        <g id="Design" transform="translate(-43.000000, -135.000000)" fill-rule="nonzero" stroke="#FFFFFF">
            <path d="M68,136 C71.885484,136 75.059244,139.059507 75.2373959,142.897117 C82.0071782,145.760024 86.5660377,152.438872 86.5660377,159.99932 L86.5660377,170.432454 C89.600758,170.665023 92,173.205466 92,176.301887 C92,179.551267 89.3581154,182.188679 86.1042477,182.188679 L49.8957523,182.188679 C46.6400268,182.188679 44,179.554604 44,176.301887 C44,173.206377 46.3952893,170.664792 49.4339623,170.432415 L49.4339623,159.99932 C49.4339623,152.437288 53.9926654,145.759449 60.7626172,142.896918 C60.9409968,139.058555 64.1175855,136 68,136 Z M59.3962264,182.188679 L63.9245283,182.188679 C63.9245283,184.4395 65.7491791,186.264151 68,186.264151 C70.2508209,186.264151 72.0754717,184.4395 72.0754717,182.188679 C63.6226415,182.191708 59.3962264,182.191708 59.3962264,182.188679 Z" id="notificationBell"></path>
        </g>
    </g>
</svg>
